<mxfile host="app.diagrams.net" modified="2023-07-31T04:30:49.147Z" agent="Mozilla/5.0 (Windows NT 10.0; Win64; x64) AppleWebKit/537.36 (KHTML, like Gecko) Chrome/115.0.0.0 Safari/537.36" etag="rWUpVmbfaAS8oVV2GznH" version="21.6.6" type="device">
  <diagram id="TO2BGpuAMod1u_qJ2dO1" name="Page-1">
    <mxGraphModel dx="1461" dy="665" grid="1" gridSize="10" guides="1" tooltips="1" connect="1" arrows="1" fold="1" page="1" pageScale="1" pageWidth="1169" pageHeight="827" math="0" shadow="0">
      <root>
        <mxCell id="0" />
        <mxCell id="1" parent="0" />
        <mxCell id="pY85IQ-k07w_p1ZW1Zgh-1" value="Appoiment" style="rounded=0;whiteSpace=wrap;html=1;" parent="1" vertex="1">
          <mxGeometry x="187" y="119" width="120" height="40" as="geometry" />
        </mxCell>
        <mxCell id="pY85IQ-k07w_p1ZW1Zgh-2" value="Patient" style="rounded=0;whiteSpace=wrap;html=1;" parent="1" vertex="1">
          <mxGeometry x="519" y="359" width="120" height="40" as="geometry" />
        </mxCell>
        <mxCell id="pY85IQ-k07w_p1ZW1Zgh-4" value="Doctor" style="rounded=0;whiteSpace=wrap;html=1;" parent="1" vertex="1">
          <mxGeometry x="187" y="358" width="120" height="40" as="geometry" />
        </mxCell>
        <mxCell id="pY85IQ-k07w_p1ZW1Zgh-8" value="" style="endArrow=none;html=1;rounded=0;entryX=0.5;entryY=1;entryDx=0;entryDy=0;exitX=0.5;exitY=0;exitDx=0;exitDy=0;" parent="1" source="pY85IQ-k07w_p1ZW1Zgh-9" target="pY85IQ-k07w_p1ZW1Zgh-1" edge="1">
          <mxGeometry width="50" height="50" relative="1" as="geometry">
            <mxPoint x="286" y="200" as="sourcePoint" />
            <mxPoint x="296" y="80" as="targetPoint" />
          </mxGeometry>
        </mxCell>
        <mxCell id="pY85IQ-k07w_p1ZW1Zgh-10" value="" style="endArrow=none;html=1;rounded=0;exitX=0.5;exitY=0;exitDx=0;exitDy=0;" parent="1" source="pY85IQ-k07w_p1ZW1Zgh-4" edge="1">
          <mxGeometry width="50" height="50" relative="1" as="geometry">
            <mxPoint x="246" y="350" as="sourcePoint" />
            <mxPoint x="246" y="303" as="targetPoint" />
          </mxGeometry>
        </mxCell>
        <mxCell id="pY85IQ-k07w_p1ZW1Zgh-9" value="involves" style="rhombus;whiteSpace=wrap;html=1;" parent="1" vertex="1">
          <mxGeometry x="206" y="223" width="80" height="80" as="geometry" />
        </mxCell>
        <mxCell id="LPo1cmtpdOkS_4kk3iqA-28" value="" style="edgeStyle=orthogonalEdgeStyle;rounded=0;orthogonalLoop=1;jettySize=auto;html=1;" parent="1" source="LPo1cmtpdOkS_4kk3iqA-1" edge="1">
          <mxGeometry relative="1" as="geometry">
            <mxPoint x="246" y="469" as="targetPoint" />
          </mxGeometry>
        </mxCell>
        <mxCell id="LPo1cmtpdOkS_4kk3iqA-1" value="Diagnosis" style="rounded=0;whiteSpace=wrap;html=1;" parent="1" vertex="1">
          <mxGeometry x="186" y="549" width="120" height="40" as="geometry" />
        </mxCell>
        <mxCell id="LPo1cmtpdOkS_4kk3iqA-2" value="" style="endArrow=none;html=1;rounded=0;entryX=0.5;entryY=1;entryDx=0;entryDy=0;exitX=0.5;exitY=0;exitDx=0;exitDy=0;" parent="1" source="LPo1cmtpdOkS_4kk3iqA-4" target="pY85IQ-k07w_p1ZW1Zgh-4" edge="1">
          <mxGeometry width="50" height="50" relative="1" as="geometry">
            <mxPoint x="286" y="599" as="sourcePoint" />
            <mxPoint x="246" y="469" as="targetPoint" />
          </mxGeometry>
        </mxCell>
        <mxCell id="LPo1cmtpdOkS_4kk3iqA-3" value="" style="endArrow=none;html=1;rounded=0;entryX=0.5;entryY=1;entryDx=0;entryDy=0;exitX=0.5;exitY=0;exitDx=0;exitDy=0;" parent="1" source="LPo1cmtpdOkS_4kk3iqA-1" target="LPo1cmtpdOkS_4kk3iqA-4" edge="1">
          <mxGeometry width="50" height="50" relative="1" as="geometry">
            <mxPoint x="246" y="671" as="sourcePoint" />
            <mxPoint x="246" y="391" as="targetPoint" />
          </mxGeometry>
        </mxCell>
        <mxCell id="LPo1cmtpdOkS_4kk3iqA-4" value="records" style="rhombus;whiteSpace=wrap;html=1;" parent="1" vertex="1">
          <mxGeometry x="206" y="429" width="80" height="80" as="geometry" />
        </mxCell>
        <mxCell id="LPo1cmtpdOkS_4kk3iqA-5" value="Credit_Card" style="rounded=0;whiteSpace=wrap;html=1;" parent="1" vertex="1">
          <mxGeometry x="921" y="77" width="120" height="40" as="geometry" />
        </mxCell>
        <mxCell id="LPo1cmtpdOkS_4kk3iqA-6" value="Cash" style="rounded=0;whiteSpace=wrap;html=1;" parent="1" vertex="1">
          <mxGeometry x="920" y="177" width="120" height="40" as="geometry" />
        </mxCell>
        <mxCell id="LPo1cmtpdOkS_4kk3iqA-9" value="" style="endArrow=none;html=1;rounded=0;entryX=1;entryY=0.5;entryDx=0;entryDy=0;exitX=0;exitY=0.5;exitDx=0;exitDy=0;" parent="1" source="WJUGm_xcKXY1s7RC3QVQ-1" target="pY85IQ-k07w_p1ZW1Zgh-1" edge="1">
          <mxGeometry width="50" height="50" relative="1" as="geometry">
            <mxPoint x="517" y="163" as="sourcePoint" />
            <mxPoint x="256" y="193" as="targetPoint" />
          </mxGeometry>
        </mxCell>
        <mxCell id="LPo1cmtpdOkS_4kk3iqA-13" value="IS A" style="triangle;whiteSpace=wrap;html=1;direction=west;" parent="1" vertex="1">
          <mxGeometry x="818" y="118" width="47.5" height="50" as="geometry" />
        </mxCell>
        <mxCell id="LPo1cmtpdOkS_4kk3iqA-14" value="" style="endArrow=none;html=1;rounded=0;exitX=1;exitY=0.5;exitDx=0;exitDy=0;entryX=1.009;entryY=0.554;entryDx=0;entryDy=0;entryPerimeter=0;" parent="1" source="LPo1cmtpdOkS_4kk3iqA-13" target="WJUGm_xcKXY1s7RC3QVQ-5" edge="1">
          <mxGeometry width="50" height="50" relative="1" as="geometry">
            <mxPoint x="639" y="174" as="sourcePoint" />
            <mxPoint x="780" y="190" as="targetPoint" />
          </mxGeometry>
        </mxCell>
        <mxCell id="LPo1cmtpdOkS_4kk3iqA-16" value="" style="endArrow=none;html=1;rounded=0;exitX=-0.029;exitY=0.993;exitDx=0;exitDy=0;exitPerimeter=0;entryX=0;entryY=0.5;entryDx=0;entryDy=0;" parent="1" source="LPo1cmtpdOkS_4kk3iqA-13" target="LPo1cmtpdOkS_4kk3iqA-5" edge="1">
          <mxGeometry width="50" height="50" relative="1" as="geometry">
            <mxPoint x="808" y="174" as="sourcePoint" />
            <mxPoint x="918" y="90" as="targetPoint" />
          </mxGeometry>
        </mxCell>
        <mxCell id="LPo1cmtpdOkS_4kk3iqA-17" value="" style="endArrow=none;html=1;rounded=0;exitX=-0.067;exitY=-0.02;exitDx=0;exitDy=0;exitPerimeter=0;entryX=0;entryY=0.5;entryDx=0;entryDy=0;" parent="1" source="LPo1cmtpdOkS_4kk3iqA-13" target="LPo1cmtpdOkS_4kk3iqA-6" edge="1">
          <mxGeometry width="50" height="50" relative="1" as="geometry">
            <mxPoint x="847" y="149" as="sourcePoint" />
            <mxPoint x="908" y="240" as="targetPoint" />
          </mxGeometry>
        </mxCell>
        <mxCell id="LPo1cmtpdOkS_4kk3iqA-21" value="" style="endArrow=none;html=1;rounded=0;exitX=0;exitY=0.5;exitDx=0;exitDy=0;entryX=1;entryY=0.5;entryDx=0;entryDy=0;" parent="1" source="LPo1cmtpdOkS_4kk3iqA-22" target="pY85IQ-k07w_p1ZW1Zgh-4" edge="1">
          <mxGeometry width="50" height="50" relative="1" as="geometry">
            <mxPoint x="300" y="421" as="sourcePoint" />
            <mxPoint x="319" y="390" as="targetPoint" />
          </mxGeometry>
        </mxCell>
        <mxCell id="LPo1cmtpdOkS_4kk3iqA-22" value="treats" style="rhombus;whiteSpace=wrap;html=1;" parent="1" vertex="1">
          <mxGeometry x="359" y="339" width="80" height="80" as="geometry" />
        </mxCell>
        <mxCell id="LPo1cmtpdOkS_4kk3iqA-23" value="" style="endArrow=none;html=1;rounded=0;entryX=1;entryY=0.5;entryDx=0;entryDy=0;exitX=0;exitY=0.5;exitDx=0;exitDy=0;" parent="1" source="pY85IQ-k07w_p1ZW1Zgh-2" target="LPo1cmtpdOkS_4kk3iqA-22" edge="1">
          <mxGeometry width="50" height="50" relative="1" as="geometry">
            <mxPoint x="474" y="375" as="sourcePoint" />
            <mxPoint x="320" y="384" as="targetPoint" />
          </mxGeometry>
        </mxCell>
        <mxCell id="LPo1cmtpdOkS_4kk3iqA-29" value="" style="endArrow=none;html=1;rounded=0;entryX=1;entryY=0.5;entryDx=0;entryDy=0;exitX=0;exitY=0.5;exitDx=0;exitDy=0;" parent="1" source="LPo1cmtpdOkS_4kk3iqA-30" target="LPo1cmtpdOkS_4kk3iqA-1" edge="1">
          <mxGeometry width="50" height="50" relative="1" as="geometry">
            <mxPoint x="316" y="620" as="sourcePoint" />
            <mxPoint x="326" y="573" as="targetPoint" />
            <Array as="points">
              <mxPoint x="360" y="570" />
            </Array>
          </mxGeometry>
        </mxCell>
        <mxCell id="LPo1cmtpdOkS_4kk3iqA-30" value="associated with&amp;nbsp;" style="rhombus;whiteSpace=wrap;html=1;" parent="1" vertex="1">
          <mxGeometry x="360" y="470" width="113" height="80" as="geometry" />
        </mxCell>
        <mxCell id="LPo1cmtpdOkS_4kk3iqA-31" value="" style="endArrow=none;html=1;rounded=0;entryX=1;entryY=0.5;entryDx=0;entryDy=0;exitX=0;exitY=1;exitDx=0;exitDy=0;" parent="1" source="pY85IQ-k07w_p1ZW1Zgh-2" target="LPo1cmtpdOkS_4kk3iqA-30" edge="1">
          <mxGeometry width="50" height="50" relative="1" as="geometry">
            <mxPoint x="490" y="574" as="sourcePoint" />
            <mxPoint x="336" y="583" as="targetPoint" />
            <Array as="points">
              <mxPoint x="498" y="399" />
              <mxPoint x="498" y="510" />
            </Array>
          </mxGeometry>
        </mxCell>
        <mxCell id="LPo1cmtpdOkS_4kk3iqA-36" value="Ward" style="rounded=0;whiteSpace=wrap;html=1;" parent="1" vertex="1">
          <mxGeometry x="186" y="716" width="120" height="40" as="geometry" />
        </mxCell>
        <mxCell id="LPo1cmtpdOkS_4kk3iqA-42" value="" style="endArrow=none;html=1;rounded=0;exitX=0;exitY=0.5;exitDx=0;exitDy=0;entryX=1.005;entryY=0.117;entryDx=0;entryDy=0;entryPerimeter=0;" parent="1" source="LPo1cmtpdOkS_4kk3iqA-43" target="LPo1cmtpdOkS_4kk3iqA-36" edge="1">
          <mxGeometry width="50" height="50" relative="1" as="geometry">
            <mxPoint x="626" y="580" as="sourcePoint" />
            <mxPoint x="300" y="730" as="targetPoint" />
            <Array as="points">
              <mxPoint x="390" y="563" />
              <mxPoint x="390" y="720" />
            </Array>
          </mxGeometry>
        </mxCell>
        <mxCell id="LPo1cmtpdOkS_4kk3iqA-43" value="works" style="rhombus;whiteSpace=wrap;html=1;" parent="1" vertex="1">
          <mxGeometry x="571" y="523" width="80" height="80" as="geometry" />
        </mxCell>
        <mxCell id="LPo1cmtpdOkS_4kk3iqA-44" value="" style="endArrow=none;html=1;rounded=0;entryX=1;entryY=0.5;entryDx=0;entryDy=0;exitX=0;exitY=0.5;exitDx=0;exitDy=0;" parent="1" source="LPo1cmtpdOkS_4kk3iqA-45" target="LPo1cmtpdOkS_4kk3iqA-43" edge="1">
          <mxGeometry width="50" height="50" relative="1" as="geometry">
            <mxPoint x="795" y="538" as="sourcePoint" />
            <mxPoint x="646" y="543" as="targetPoint" />
            <Array as="points">
              <mxPoint x="720" y="536" />
              <mxPoint x="720" y="563" />
            </Array>
          </mxGeometry>
        </mxCell>
        <mxCell id="LPo1cmtpdOkS_4kk3iqA-45" value="Nurse" style="rounded=0;whiteSpace=wrap;html=1;" parent="1" vertex="1">
          <mxGeometry x="763" y="516" width="120" height="40" as="geometry" />
        </mxCell>
        <mxCell id="LPo1cmtpdOkS_4kk3iqA-46" value="" style="endArrow=none;html=1;rounded=0;entryX=1;entryY=0.5;entryDx=0;entryDy=0;exitX=0;exitY=0.5;exitDx=0;exitDy=0;" parent="1" source="LPo1cmtpdOkS_4kk3iqA-47" target="LPo1cmtpdOkS_4kk3iqA-36" edge="1">
          <mxGeometry width="50" height="50" relative="1" as="geometry">
            <mxPoint x="373" y="790" as="sourcePoint" />
            <mxPoint x="363" y="739" as="targetPoint" />
          </mxGeometry>
        </mxCell>
        <mxCell id="LPo1cmtpdOkS_4kk3iqA-47" value="belongs-to" style="rhombus;whiteSpace=wrap;html=1;" parent="1" vertex="1">
          <mxGeometry x="462" y="697" width="80" height="80" as="geometry" />
        </mxCell>
        <mxCell id="LPo1cmtpdOkS_4kk3iqA-48" value="" style="endArrow=none;html=1;rounded=0;entryX=1;entryY=0.5;entryDx=0;entryDy=0;exitX=0;exitY=0.5;exitDx=0;exitDy=0;" parent="1" source="WJUGm_xcKXY1s7RC3QVQ-9" target="LPo1cmtpdOkS_4kk3iqA-47" edge="1">
          <mxGeometry width="50" height="50" relative="1" as="geometry">
            <mxPoint x="670" y="737" as="sourcePoint" />
            <mxPoint x="393" y="753" as="targetPoint" />
          </mxGeometry>
        </mxCell>
        <mxCell id="Ck8Sq5CcOiWy3aPSHNV1-1" value="" style="endArrow=none;html=1;rounded=0;entryX=0;entryY=0;entryDx=0;entryDy=0;exitX=1;exitY=0.5;exitDx=0;exitDy=0;" parent="1" source="Ck8Sq5CcOiWy3aPSHNV1-2" target="pY85IQ-k07w_p1ZW1Zgh-4" edge="1">
          <mxGeometry width="50" height="50" relative="1" as="geometry">
            <mxPoint x="150" y="340" as="sourcePoint" />
            <mxPoint x="166.14263162445695" y="387.9992832507624" as="targetPoint" />
          </mxGeometry>
        </mxCell>
        <mxCell id="Ck8Sq5CcOiWy3aPSHNV1-2" value="&lt;u&gt;doctorID&lt;/u&gt;" style="ellipse;whiteSpace=wrap;html=1;" parent="1" vertex="1">
          <mxGeometry x="30" y="309" width="120" height="40" as="geometry" />
        </mxCell>
        <mxCell id="Ck8Sq5CcOiWy3aPSHNV1-3" value="" style="endArrow=none;html=1;rounded=0;exitX=1;exitY=0.5;exitDx=0;exitDy=0;entryX=0;entryY=1;entryDx=0;entryDy=0;" parent="1" source="Ck8Sq5CcOiWy3aPSHNV1-4" target="pY85IQ-k07w_p1ZW1Zgh-4" edge="1">
          <mxGeometry width="50" height="50" relative="1" as="geometry">
            <mxPoint x="150" y="430" as="sourcePoint" />
            <mxPoint x="187" y="360" as="targetPoint" />
          </mxGeometry>
        </mxCell>
        <mxCell id="Ck8Sq5CcOiWy3aPSHNV1-4" value="doctorName" style="ellipse;whiteSpace=wrap;html=1;" parent="1" vertex="1">
          <mxGeometry x="30" y="406" width="120" height="40" as="geometry" />
        </mxCell>
        <mxCell id="Ck8Sq5CcOiWy3aPSHNV1-11" value="" style="endArrow=none;html=1;rounded=0;entryX=0.25;entryY=0;entryDx=0;entryDy=0;exitX=0.5;exitY=1;exitDx=0;exitDy=0;" parent="1" source="Ck8Sq5CcOiWy3aPSHNV1-12" target="pY85IQ-k07w_p1ZW1Zgh-2" edge="1">
          <mxGeometry width="50" height="50" relative="1" as="geometry">
            <mxPoint x="530" y="341.5" as="sourcePoint" />
            <mxPoint x="567" y="359.5" as="targetPoint" />
          </mxGeometry>
        </mxCell>
        <mxCell id="Ck8Sq5CcOiWy3aPSHNV1-12" value="&lt;u&gt;patientID&lt;/u&gt;" style="ellipse;whiteSpace=wrap;html=1;" parent="1" vertex="1">
          <mxGeometry x="420" y="267.75" width="120" height="40" as="geometry" />
        </mxCell>
        <mxCell id="Ck8Sq5CcOiWy3aPSHNV1-13" value="" style="endArrow=none;html=1;rounded=0;exitX=0.5;exitY=1;exitDx=0;exitDy=0;entryX=0.5;entryY=1;entryDx=0;entryDy=0;" parent="1" source="Ck8Sq5CcOiWy3aPSHNV1-14" target="pY85IQ-k07w_p1ZW1Zgh-2" edge="1">
          <mxGeometry width="50" height="50" relative="1" as="geometry">
            <mxPoint x="530" y="431.5" as="sourcePoint" />
            <mxPoint x="567" y="399.5" as="targetPoint" />
          </mxGeometry>
        </mxCell>
        <mxCell id="Ck8Sq5CcOiWy3aPSHNV1-14" value="patientName" style="ellipse;whiteSpace=wrap;html=1;" parent="1" vertex="1">
          <mxGeometry x="523" y="458" width="120" height="40" as="geometry" />
        </mxCell>
        <mxCell id="Ck8Sq5CcOiWy3aPSHNV1-15" value="" style="endArrow=none;html=1;rounded=0;exitX=0.5;exitY=1;exitDx=0;exitDy=0;entryX=0.75;entryY=0;entryDx=0;entryDy=0;" parent="1" source="Ck8Sq5CcOiWy3aPSHNV1-16" target="pY85IQ-k07w_p1ZW1Zgh-2" edge="1">
          <mxGeometry width="50" height="50" relative="1" as="geometry">
            <mxPoint x="634" y="406.75" as="sourcePoint" />
            <mxPoint x="652" y="324.25" as="targetPoint" />
          </mxGeometry>
        </mxCell>
        <mxCell id="Ck8Sq5CcOiWy3aPSHNV1-16" value="contactNo" style="ellipse;whiteSpace=wrap;html=1;" parent="1" vertex="1">
          <mxGeometry x="605" y="266.5" width="120" height="40" as="geometry" />
        </mxCell>
        <mxCell id="Ck8Sq5CcOiWy3aPSHNV1-18" value="Outpattient" style="rounded=0;whiteSpace=wrap;html=1;" parent="1" vertex="1">
          <mxGeometry x="759" y="318" width="120" height="40" as="geometry" />
        </mxCell>
        <mxCell id="Ck8Sq5CcOiWy3aPSHNV1-19" value="Admitted_Patient" style="rounded=0;whiteSpace=wrap;html=1;" parent="1" vertex="1">
          <mxGeometry x="761" y="402" width="120" height="40" as="geometry" />
        </mxCell>
        <mxCell id="Ck8Sq5CcOiWy3aPSHNV1-20" value="IS A" style="triangle;whiteSpace=wrap;html=1;direction=west;" parent="1" vertex="1">
          <mxGeometry x="662" y="354" width="47.5" height="50" as="geometry" />
        </mxCell>
        <mxCell id="Ck8Sq5CcOiWy3aPSHNV1-21" value="" style="endArrow=none;html=1;rounded=0;exitX=1;exitY=0.5;exitDx=0;exitDy=0;entryX=1;entryY=0.5;entryDx=0;entryDy=0;" parent="1" source="Ck8Sq5CcOiWy3aPSHNV1-20" target="pY85IQ-k07w_p1ZW1Zgh-2" edge="1">
          <mxGeometry width="50" height="50" relative="1" as="geometry">
            <mxPoint x="662" y="384" as="sourcePoint" />
            <mxPoint x="620" y="430" as="targetPoint" />
          </mxGeometry>
        </mxCell>
        <mxCell id="Ck8Sq5CcOiWy3aPSHNV1-22" value="" style="endArrow=none;html=1;rounded=0;exitX=0.009;exitY=0.95;exitDx=0;exitDy=0;exitPerimeter=0;entryX=0;entryY=0.5;entryDx=0;entryDy=0;" parent="1" source="Ck8Sq5CcOiWy3aPSHNV1-20" target="Ck8Sq5CcOiWy3aPSHNV1-18" edge="1">
          <mxGeometry width="50" height="50" relative="1" as="geometry">
            <mxPoint x="710.8775" y="356.35" as="sourcePoint" />
            <mxPoint x="791" y="307" as="targetPoint" />
          </mxGeometry>
        </mxCell>
        <mxCell id="Ck8Sq5CcOiWy3aPSHNV1-23" value="" style="endArrow=none;html=1;rounded=0;exitX=0.009;exitY=0.029;exitDx=0;exitDy=0;exitPerimeter=0;entryX=0;entryY=0.5;entryDx=0;entryDy=0;" parent="1" source="Ck8Sq5CcOiWy3aPSHNV1-20" target="Ck8Sq5CcOiWy3aPSHNV1-19" edge="1">
          <mxGeometry width="50" height="50" relative="1" as="geometry">
            <mxPoint x="712.6825000000003" y="407" as="sourcePoint" />
            <mxPoint x="781" y="457" as="targetPoint" />
          </mxGeometry>
        </mxCell>
        <mxCell id="Ck8Sq5CcOiWy3aPSHNV1-26" value="" style="endArrow=none;html=1;rounded=0;entryX=0;entryY=0;entryDx=0;entryDy=0;exitX=1;exitY=0.5;exitDx=0;exitDy=0;" parent="1" source="Ck8Sq5CcOiWy3aPSHNV1-27" target="LPo1cmtpdOkS_4kk3iqA-1" edge="1">
          <mxGeometry width="50" height="50" relative="1" as="geometry">
            <mxPoint x="146" y="533" as="sourcePoint" />
            <mxPoint x="183" y="551" as="targetPoint" />
          </mxGeometry>
        </mxCell>
        <mxCell id="Ck8Sq5CcOiWy3aPSHNV1-27" value="&lt;u&gt;diagnosisID&lt;/u&gt;" style="ellipse;whiteSpace=wrap;html=1;" parent="1" vertex="1">
          <mxGeometry x="26" y="509" width="120" height="40" as="geometry" />
        </mxCell>
        <mxCell id="Ck8Sq5CcOiWy3aPSHNV1-28" value="" style="endArrow=none;html=1;rounded=0;exitX=1;exitY=0.5;exitDx=0;exitDy=0;entryX=0;entryY=1;entryDx=0;entryDy=0;" parent="1" source="Ck8Sq5CcOiWy3aPSHNV1-29" target="LPo1cmtpdOkS_4kk3iqA-1" edge="1">
          <mxGeometry width="50" height="50" relative="1" as="geometry">
            <mxPoint x="146" y="623" as="sourcePoint" />
            <mxPoint x="183" y="591" as="targetPoint" />
          </mxGeometry>
        </mxCell>
        <mxCell id="Ck8Sq5CcOiWy3aPSHNV1-29" value="diagnosisName" style="ellipse;whiteSpace=wrap;html=1;" parent="1" vertex="1">
          <mxGeometry x="26" y="592" width="120" height="40" as="geometry" />
        </mxCell>
        <mxCell id="Ck8Sq5CcOiWy3aPSHNV1-31" value="" style="endArrow=none;html=1;rounded=0;exitX=0.5;exitY=0;exitDx=0;exitDy=0;entryX=0.5;entryY=1;entryDx=0;entryDy=0;" parent="1" source="Ck8Sq5CcOiWy3aPSHNV1-32" target="LPo1cmtpdOkS_4kk3iqA-1" edge="1">
          <mxGeometry width="50" height="50" relative="1" as="geometry">
            <mxPoint x="199" y="638" as="sourcePoint" />
            <mxPoint x="250" y="620" as="targetPoint" />
          </mxGeometry>
        </mxCell>
        <mxCell id="Ck8Sq5CcOiWy3aPSHNV1-32" value="lastAppID" style="ellipse;whiteSpace=wrap;html=1;" parent="1" vertex="1">
          <mxGeometry x="185" y="638" width="120" height="40" as="geometry" />
        </mxCell>
        <mxCell id="Ck8Sq5CcOiWy3aPSHNV1-33" value="" style="endArrow=none;html=1;rounded=0;exitX=0.5;exitY=0;exitDx=0;exitDy=0;entryX=0.5;entryY=1;entryDx=0;entryDy=0;" parent="1" source="pY85IQ-k07w_p1ZW1Zgh-2" target="WJUGm_xcKXY1s7RC3QVQ-1" edge="1">
          <mxGeometry width="50" height="50" relative="1" as="geometry">
            <mxPoint x="573" y="359" as="sourcePoint" />
            <mxPoint x="540.9999999999995" y="204.9999999999999" as="targetPoint" />
          </mxGeometry>
        </mxCell>
        <mxCell id="WJUGm_xcKXY1s7RC3QVQ-1" value="makes" style="shape=rhombus;double=1;perimeter=rhombusPerimeter;whiteSpace=wrap;html=1;align=center;" parent="1" vertex="1">
          <mxGeometry x="534" y="99" width="90" height="84" as="geometry" />
        </mxCell>
        <mxCell id="WJUGm_xcKXY1s7RC3QVQ-3" value="" style="shape=link;html=1;rounded=0;exitX=0.958;exitY=0.496;exitDx=0;exitDy=0;exitPerimeter=0;entryX=0;entryY=0.5;entryDx=0;entryDy=0;" parent="1" source="WJUGm_xcKXY1s7RC3QVQ-1" target="WJUGm_xcKXY1s7RC3QVQ-5" edge="1">
          <mxGeometry relative="1" as="geometry">
            <mxPoint x="410" y="220" as="sourcePoint" />
            <mxPoint x="660" y="163" as="targetPoint" />
          </mxGeometry>
        </mxCell>
        <mxCell id="WJUGm_xcKXY1s7RC3QVQ-4" value="M" style="resizable=0;html=1;whiteSpace=wrap;align=right;verticalAlign=bottom;" parent="WJUGm_xcKXY1s7RC3QVQ-3" connectable="0" vertex="1">
          <mxGeometry x="1" relative="1" as="geometry">
            <mxPoint x="-168" y="238" as="offset" />
          </mxGeometry>
        </mxCell>
        <mxCell id="WJUGm_xcKXY1s7RC3QVQ-5" value="Payment" style="shape=ext;margin=3;double=1;whiteSpace=wrap;html=1;align=center;" parent="1" vertex="1">
          <mxGeometry x="678" y="121" width="124" height="40" as="geometry" />
        </mxCell>
        <mxCell id="WJUGm_xcKXY1s7RC3QVQ-6" value="" style="endArrow=none;html=1;rounded=0;exitX=0;exitY=0.5;exitDx=0;exitDy=0;entryX=1;entryY=0.5;entryDx=0;entryDy=0;" parent="1" source="WJUGm_xcKXY1s7RC3QVQ-7" target="LPo1cmtpdOkS_4kk3iqA-45" edge="1">
          <mxGeometry width="50" height="50" relative="1" as="geometry">
            <mxPoint x="897" y="580" as="sourcePoint" />
            <mxPoint x="930" y="538" as="targetPoint" />
          </mxGeometry>
        </mxCell>
        <mxCell id="WJUGm_xcKXY1s7RC3QVQ-7" value="assigned" style="rhombus;whiteSpace=wrap;html=1;" parent="1" vertex="1">
          <mxGeometry x="959" y="498" width="80" height="80" as="geometry" />
        </mxCell>
        <mxCell id="WJUGm_xcKXY1s7RC3QVQ-8" value="" style="endArrow=none;html=1;rounded=0;entryX=1;entryY=0.5;entryDx=0;entryDy=0;exitX=1;exitY=0.5;exitDx=0;exitDy=0;" parent="1" source="Ck8Sq5CcOiWy3aPSHNV1-19" target="WJUGm_xcKXY1s7RC3QVQ-7" edge="1">
          <mxGeometry width="50" height="50" relative="1" as="geometry">
            <mxPoint x="1073" y="538" as="sourcePoint" />
            <mxPoint x="917" y="543" as="targetPoint" />
            <Array as="points">
              <mxPoint x="1040" y="422" />
            </Array>
          </mxGeometry>
        </mxCell>
        <mxCell id="WJUGm_xcKXY1s7RC3QVQ-9" value="Room" style="rounded=0;whiteSpace=wrap;html=1;" parent="1" vertex="1">
          <mxGeometry x="679" y="715" width="120" height="40" as="geometry" />
        </mxCell>
        <mxCell id="WJUGm_xcKXY1s7RC3QVQ-10" value="assigned to" style="rhombus;whiteSpace=wrap;html=1;" parent="1" vertex="1">
          <mxGeometry x="969" y="696" width="80" height="80" as="geometry" />
        </mxCell>
        <mxCell id="WJUGm_xcKXY1s7RC3QVQ-13" value="" style="endArrow=none;html=1;rounded=0;exitX=0;exitY=0.5;exitDx=0;exitDy=0;entryX=1;entryY=0.5;entryDx=0;entryDy=0;" parent="1" source="WJUGm_xcKXY1s7RC3QVQ-10" target="WJUGm_xcKXY1s7RC3QVQ-9" edge="1">
          <mxGeometry width="50" height="50" relative="1" as="geometry">
            <mxPoint x="969" y="595" as="sourcePoint" />
            <mxPoint x="932" y="595" as="targetPoint" />
          </mxGeometry>
        </mxCell>
        <mxCell id="WJUGm_xcKXY1s7RC3QVQ-15" value="" style="endArrow=none;html=1;rounded=0;entryX=0.989;entryY=0.119;entryDx=0;entryDy=0;entryPerimeter=0;exitX=1;exitY=0.5;exitDx=0;exitDy=0;" parent="1" source="WJUGm_xcKXY1s7RC3QVQ-10" target="Ck8Sq5CcOiWy3aPSHNV1-19" edge="1">
          <mxGeometry width="50" height="50" relative="1" as="geometry">
            <mxPoint x="1110" y="420" as="sourcePoint" />
            <mxPoint x="922" y="415" as="targetPoint" />
            <Array as="points">
              <mxPoint x="1100" y="736" />
              <mxPoint x="1100" y="407" />
            </Array>
          </mxGeometry>
        </mxCell>
        <mxCell id="WJUGm_xcKXY1s7RC3QVQ-17" value="" style="endArrow=none;html=1;rounded=0;exitX=1;exitY=0.5;exitDx=0;exitDy=0;entryX=0.5;entryY=1;entryDx=0;entryDy=0;" parent="1" source="WJUGm_xcKXY1s7RC3QVQ-20" target="LPo1cmtpdOkS_4kk3iqA-45" edge="1">
          <mxGeometry width="50" height="50" relative="1" as="geometry">
            <mxPoint x="834" y="605" as="sourcePoint" />
            <mxPoint x="790" y="603" as="targetPoint" />
          </mxGeometry>
        </mxCell>
        <mxCell id="WJUGm_xcKXY1s7RC3QVQ-19" value="" style="endArrow=none;html=1;rounded=0;exitX=0.207;exitY=0.879;exitDx=0;exitDy=0;exitPerimeter=0;entryX=0.5;entryY=0;entryDx=0;entryDy=0;" parent="1" source="WJUGm_xcKXY1s7RC3QVQ-20" target="WJUGm_xcKXY1s7RC3QVQ-21" edge="1">
          <mxGeometry width="50" height="50" relative="1" as="geometry">
            <mxPoint x="890" y="640" as="sourcePoint" />
            <mxPoint x="900" y="660" as="targetPoint" />
          </mxGeometry>
        </mxCell>
        <mxCell id="WJUGm_xcKXY1s7RC3QVQ-20" value="IS A" style="triangle;whiteSpace=wrap;html=1;direction=west;rotation=90;" parent="1" vertex="1">
          <mxGeometry x="799" y="577" width="47.5" height="50" as="geometry" />
        </mxCell>
        <mxCell id="WJUGm_xcKXY1s7RC3QVQ-21" value="headNurse" style="rounded=0;whiteSpace=wrap;html=1;" parent="1" vertex="1">
          <mxGeometry x="800" y="657" width="120" height="40" as="geometry" />
        </mxCell>
        <mxCell id="WJUGm_xcKXY1s7RC3QVQ-22" value="" style="endArrow=none;html=1;rounded=0;exitX=0;exitY=0.5;exitDx=0;exitDy=0;entryX=1;entryY=0.5;entryDx=0;entryDy=0;" parent="1" source="WJUGm_xcKXY1s7RC3QVQ-21" target="WJUGm_xcKXY1s7RC3QVQ-23" edge="1">
          <mxGeometry width="50" height="50" relative="1" as="geometry">
            <mxPoint x="841" y="623" as="sourcePoint" />
            <mxPoint x="740" y="680" as="targetPoint" />
          </mxGeometry>
        </mxCell>
        <mxCell id="WJUGm_xcKXY1s7RC3QVQ-23" value="manage" style="rhombus;whiteSpace=wrap;html=1;" parent="1" vertex="1">
          <mxGeometry x="573" y="639" width="80" height="80" as="geometry" />
        </mxCell>
        <mxCell id="WJUGm_xcKXY1s7RC3QVQ-24" value="" style="endArrow=none;html=1;rounded=0;exitX=0;exitY=0.5;exitDx=0;exitDy=0;entryX=1;entryY=0.25;entryDx=0;entryDy=0;" parent="1" source="WJUGm_xcKXY1s7RC3QVQ-23" target="LPo1cmtpdOkS_4kk3iqA-36" edge="1">
          <mxGeometry width="50" height="50" relative="1" as="geometry">
            <mxPoint x="581" y="573" as="sourcePoint" />
            <mxPoint x="320" y="790" as="targetPoint" />
            <Array as="points">
              <mxPoint x="440" y="680" />
              <mxPoint x="440" y="726" />
            </Array>
          </mxGeometry>
        </mxCell>
        <mxCell id="WJUGm_xcKXY1s7RC3QVQ-26" value="" style="endArrow=none;html=1;rounded=0;exitX=1;exitY=0.5;exitDx=0;exitDy=0;entryX=0;entryY=0.5;entryDx=0;entryDy=0;" parent="1" source="WJUGm_xcKXY1s7RC3QVQ-28" target="pY85IQ-k07w_p1ZW1Zgh-4" edge="1">
          <mxGeometry width="50" height="50" relative="1" as="geometry">
            <mxPoint x="145.99999999999994" y="377" as="sourcePoint" />
            <mxPoint x="183" y="356" as="targetPoint" />
          </mxGeometry>
        </mxCell>
        <mxCell id="WJUGm_xcKXY1s7RC3QVQ-28" value="contactNo" style="ellipse;shape=doubleEllipse;margin=3;whiteSpace=wrap;html=1;align=center;" parent="1" vertex="1">
          <mxGeometry x="28" y="358" width="116" height="40" as="geometry" />
        </mxCell>
        <mxCell id="WJUGm_xcKXY1s7RC3QVQ-29" value="" style="endArrow=none;html=1;rounded=0;exitX=0.5;exitY=1;exitDx=0;exitDy=0;entryX=0.25;entryY=0;entryDx=0;entryDy=0;" parent="1" source="WJUGm_xcKXY1s7RC3QVQ-30" target="pY85IQ-k07w_p1ZW1Zgh-1" edge="1">
          <mxGeometry width="50" height="50" relative="1" as="geometry">
            <mxPoint x="220" y="102" as="sourcePoint" />
            <mxPoint x="257" y="70" as="targetPoint" />
          </mxGeometry>
        </mxCell>
        <mxCell id="WJUGm_xcKXY1s7RC3QVQ-30" value="&lt;u&gt;appoimentNo&lt;/u&gt;" style="ellipse;whiteSpace=wrap;html=1;" parent="1" vertex="1">
          <mxGeometry x="120" y="30" width="120" height="40" as="geometry" />
        </mxCell>
        <mxCell id="WJUGm_xcKXY1s7RC3QVQ-31" value="" style="endArrow=none;html=1;rounded=0;exitX=0.5;exitY=1;exitDx=0;exitDy=0;entryX=0.75;entryY=0;entryDx=0;entryDy=0;" parent="1" source="WJUGm_xcKXY1s7RC3QVQ-32" target="pY85IQ-k07w_p1ZW1Zgh-1" edge="1">
          <mxGeometry width="50" height="50" relative="1" as="geometry">
            <mxPoint x="350" y="104" as="sourcePoint" />
            <mxPoint x="377" y="121" as="targetPoint" />
          </mxGeometry>
        </mxCell>
        <mxCell id="WJUGm_xcKXY1s7RC3QVQ-32" value="location" style="ellipse;whiteSpace=wrap;html=1;" parent="1" vertex="1">
          <mxGeometry x="250" y="32" width="120" height="40" as="geometry" />
        </mxCell>
        <mxCell id="WJUGm_xcKXY1s7RC3QVQ-33" value="" style="endArrow=none;html=1;rounded=0;exitX=1;exitY=0.5;exitDx=0;exitDy=0;entryX=0;entryY=0;entryDx=0;entryDy=0;" parent="1" source="WJUGm_xcKXY1s7RC3QVQ-34" target="pY85IQ-k07w_p1ZW1Zgh-1" edge="1">
          <mxGeometry width="50" height="50" relative="1" as="geometry">
            <mxPoint x="200" y="153" as="sourcePoint" />
            <mxPoint x="127" y="168" as="targetPoint" />
          </mxGeometry>
        </mxCell>
        <mxCell id="WJUGm_xcKXY1s7RC3QVQ-34" value="time" style="ellipse;whiteSpace=wrap;html=1;" parent="1" vertex="1">
          <mxGeometry x="20" y="90" width="120" height="40" as="geometry" />
        </mxCell>
        <mxCell id="WJUGm_xcKXY1s7RC3QVQ-35" value="" style="endArrow=none;html=1;rounded=0;exitX=1;exitY=0.5;exitDx=0;exitDy=0;entryX=0;entryY=1;entryDx=0;entryDy=0;" parent="1" source="WJUGm_xcKXY1s7RC3QVQ-36" target="pY85IQ-k07w_p1ZW1Zgh-1" edge="1">
          <mxGeometry width="50" height="50" relative="1" as="geometry">
            <mxPoint x="210" y="163" as="sourcePoint" />
            <mxPoint x="197" y="149" as="targetPoint" />
          </mxGeometry>
        </mxCell>
        <mxCell id="WJUGm_xcKXY1s7RC3QVQ-36" value="date" style="ellipse;whiteSpace=wrap;html=1;" parent="1" vertex="1">
          <mxGeometry x="20" y="148" width="120" height="40" as="geometry" />
        </mxCell>
        <mxCell id="WJUGm_xcKXY1s7RC3QVQ-37" value="" style="endArrow=none;html=1;rounded=0;exitX=1;exitY=0.5;exitDx=0;exitDy=0;entryX=0;entryY=1;entryDx=0;entryDy=0;" parent="1" source="WJUGm_xcKXY1s7RC3QVQ-38" target="pY85IQ-k07w_p1ZW1Zgh-1" edge="1">
          <mxGeometry width="50" height="50" relative="1" as="geometry">
            <mxPoint x="208" y="215" as="sourcePoint" />
            <mxPoint x="185" y="211" as="targetPoint" />
          </mxGeometry>
        </mxCell>
        <mxCell id="WJUGm_xcKXY1s7RC3QVQ-38" value="scheduleBy" style="ellipse;whiteSpace=wrap;html=1;" parent="1" vertex="1">
          <mxGeometry x="18" y="200" width="120" height="40" as="geometry" />
        </mxCell>
        <mxCell id="WJUGm_xcKXY1s7RC3QVQ-39" value="" style="endArrow=none;html=1;rounded=0;exitX=0.5;exitY=0;exitDx=0;exitDy=0;entryX=0.5;entryY=1;entryDx=0;entryDy=0;" parent="1" source="WJUGm_xcKXY1s7RC3QVQ-40" target="WJUGm_xcKXY1s7RC3QVQ-9" edge="1">
          <mxGeometry width="50" height="50" relative="1" as="geometry">
            <mxPoint x="822" y="825" as="sourcePoint" />
            <mxPoint x="799" y="821" as="targetPoint" />
          </mxGeometry>
        </mxCell>
        <mxCell id="WJUGm_xcKXY1s7RC3QVQ-40" value="&lt;u&gt;roomNO&lt;/u&gt;" style="ellipse;whiteSpace=wrap;html=1;" parent="1" vertex="1">
          <mxGeometry x="680" y="810" width="120" height="40" as="geometry" />
        </mxCell>
        <mxCell id="WJUGm_xcKXY1s7RC3QVQ-41" value="" style="endArrow=none;html=1;rounded=0;exitX=0.5;exitY=0;exitDx=0;exitDy=0;entryX=0.75;entryY=1;entryDx=0;entryDy=0;" parent="1" source="WJUGm_xcKXY1s7RC3QVQ-42" target="LPo1cmtpdOkS_4kk3iqA-36" edge="1">
          <mxGeometry width="50" height="50" relative="1" as="geometry">
            <mxPoint x="260" y="800" as="sourcePoint" />
            <mxPoint x="290" y="770" as="targetPoint" />
          </mxGeometry>
        </mxCell>
        <mxCell id="WJUGm_xcKXY1s7RC3QVQ-42" value="&lt;u&gt;wardNo&lt;/u&gt;" style="ellipse;whiteSpace=wrap;html=1;" parent="1" vertex="1">
          <mxGeometry x="268" y="809" width="120" height="40" as="geometry" />
        </mxCell>
        <mxCell id="WJUGm_xcKXY1s7RC3QVQ-43" value="" style="endArrow=none;html=1;rounded=0;exitX=0.5;exitY=0;exitDx=0;exitDy=0;entryX=0.25;entryY=1;entryDx=0;entryDy=0;" parent="1" source="WJUGm_xcKXY1s7RC3QVQ-44" target="LPo1cmtpdOkS_4kk3iqA-36" edge="1">
          <mxGeometry width="50" height="50" relative="1" as="geometry">
            <mxPoint x="74" y="779" as="sourcePoint" />
            <mxPoint x="121" y="730" as="targetPoint" />
          </mxGeometry>
        </mxCell>
        <mxCell id="WJUGm_xcKXY1s7RC3QVQ-44" value="wardName" style="ellipse;whiteSpace=wrap;html=1;" parent="1" vertex="1">
          <mxGeometry x="108" y="809" width="120" height="40" as="geometry" />
        </mxCell>
        <mxCell id="WJUGm_xcKXY1s7RC3QVQ-45" value="" style="endArrow=none;html=1;rounded=0;exitX=0.5;exitY=1;exitDx=0;exitDy=0;entryX=0.5;entryY=0;entryDx=0;entryDy=0;" parent="1" source="WJUGm_xcKXY1s7RC3QVQ-46" target="WJUGm_xcKXY1s7RC3QVQ-5" edge="1">
          <mxGeometry width="50" height="50" relative="1" as="geometry">
            <mxPoint x="791" y="109" as="sourcePoint" />
            <mxPoint x="718" y="124" as="targetPoint" />
          </mxGeometry>
        </mxCell>
        <mxCell id="WJUGm_xcKXY1s7RC3QVQ-46" value="pID" style="ellipse;whiteSpace=wrap;html=1;" parent="1" vertex="1">
          <mxGeometry x="681" y="37" width="120" height="40" as="geometry" />
        </mxCell>
        <mxCell id="WJUGm_xcKXY1s7RC3QVQ-48" value="" style="endArrow=none;dashed=1;html=1;rounded=0;" parent="1" edge="1">
          <mxGeometry width="50" height="50" relative="1" as="geometry">
            <mxPoint x="731" y="70" as="sourcePoint" />
            <mxPoint x="751" y="70" as="targetPoint" />
          </mxGeometry>
        </mxCell>
        <mxCell id="WJUGm_xcKXY1s7RC3QVQ-49" value="" style="endArrow=none;html=1;rounded=0;exitX=1;exitY=0.5;exitDx=0;exitDy=0;entryX=0;entryY=0.5;entryDx=0;entryDy=0;" parent="1" source="WJUGm_xcKXY1s7RC3QVQ-50" target="LPo1cmtpdOkS_4kk3iqA-36" edge="1">
          <mxGeometry width="50" height="50" relative="1" as="geometry">
            <mxPoint x="84" y="789" as="sourcePoint" />
            <mxPoint x="226" y="766" as="targetPoint" />
          </mxGeometry>
        </mxCell>
        <mxCell id="WJUGm_xcKXY1s7RC3QVQ-50" value="floorNo" style="ellipse;whiteSpace=wrap;html=1;" parent="1" vertex="1">
          <mxGeometry x="30" y="717" width="120" height="40" as="geometry" />
        </mxCell>
        <mxCell id="WJUGm_xcKXY1s7RC3QVQ-51" value="N" style="resizable=0;html=1;whiteSpace=wrap;align=right;verticalAlign=bottom;" parent="1" connectable="0" vertex="1">
          <mxGeometry x="323.9990261211079" y="379.9989476077655" as="geometry" />
        </mxCell>
        <mxCell id="WJUGm_xcKXY1s7RC3QVQ-52" value="1" style="resizable=0;html=1;whiteSpace=wrap;align=right;verticalAlign=bottom;" parent="1" connectable="0" vertex="1">
          <mxGeometry x="899.9990278118698" y="537.9983661015021" as="geometry" />
        </mxCell>
        <mxCell id="WJUGm_xcKXY1s7RC3QVQ-54" value="1" style="resizable=0;html=1;whiteSpace=wrap;align=right;verticalAlign=bottom;" parent="1" connectable="0" vertex="1">
          <mxGeometry x="927.9990278118698" y="503.99836610150214" as="geometry">
            <mxPoint x="-26" y="-61" as="offset" />
          </mxGeometry>
        </mxCell>
        <mxCell id="WJUGm_xcKXY1s7RC3QVQ-55" value="1" style="resizable=0;html=1;whiteSpace=wrap;align=right;verticalAlign=bottom;" parent="1" connectable="0" vertex="1">
          <mxGeometry x="279.9990261211079" y="401.9989476077655" as="geometry">
            <mxPoint x="-19" y="-47" as="offset" />
          </mxGeometry>
        </mxCell>
        <mxCell id="WJUGm_xcKXY1s7RC3QVQ-56" value="M" style="resizable=0;html=1;whiteSpace=wrap;align=right;verticalAlign=bottom;" parent="1" connectable="0" vertex="1">
          <mxGeometry x="279.9990261211079" y="229.9989476077655" as="geometry">
            <mxPoint x="-19" y="-47" as="offset" />
          </mxGeometry>
        </mxCell>
        <mxCell id="WJUGm_xcKXY1s7RC3QVQ-57" value="1" style="resizable=0;html=1;whiteSpace=wrap;align=right;verticalAlign=bottom;" parent="1" connectable="0" vertex="1">
          <mxGeometry x="333.9990261211079" y="390.9989476077655" as="geometry">
            <mxPoint x="-72" y="25" as="offset" />
          </mxGeometry>
        </mxCell>
        <mxCell id="WJUGm_xcKXY1s7RC3QVQ-58" value="M" style="resizable=0;html=1;whiteSpace=wrap;align=right;verticalAlign=bottom;" parent="1" connectable="0" vertex="1">
          <mxGeometry x="333.9990261211079" y="522.9989476077656" as="geometry">
            <mxPoint x="-72" y="25" as="offset" />
          </mxGeometry>
        </mxCell>
        <mxCell id="WJUGm_xcKXY1s7RC3QVQ-59" value="M" style="resizable=0;html=1;whiteSpace=wrap;align=right;verticalAlign=bottom;" parent="1" connectable="0" vertex="1">
          <mxGeometry x="398.9990261211079" y="543.9989476077656" as="geometry">
            <mxPoint x="-72" y="25" as="offset" />
          </mxGeometry>
        </mxCell>
        <mxCell id="WJUGm_xcKXY1s7RC3QVQ-60" value="1" style="resizable=0;html=1;whiteSpace=wrap;align=right;verticalAlign=bottom;" parent="1" connectable="0" vertex="1">
          <mxGeometry x="587.9990261211078" y="390.99894760776556" as="geometry">
            <mxPoint x="-72" y="25" as="offset" />
          </mxGeometry>
        </mxCell>
        <mxCell id="WJUGm_xcKXY1s7RC3QVQ-61" value="1" style="resizable=0;html=1;whiteSpace=wrap;align=right;verticalAlign=bottom;" parent="1" connectable="0" vertex="1">
          <mxGeometry x="398.9990261211079" y="695.9989476077656" as="geometry">
            <mxPoint x="-72" y="25" as="offset" />
          </mxGeometry>
        </mxCell>
        <mxCell id="WJUGm_xcKXY1s7RC3QVQ-62" value="M" style="resizable=0;html=1;whiteSpace=wrap;align=right;verticalAlign=bottom;" parent="1" connectable="0" vertex="1">
          <mxGeometry x="829.9990261211078" y="508.99894760776556" as="geometry">
            <mxPoint x="-72" y="25" as="offset" />
          </mxGeometry>
        </mxCell>
        <mxCell id="WJUGm_xcKXY1s7RC3QVQ-63" value="1" style="resizable=0;html=1;whiteSpace=wrap;align=right;verticalAlign=bottom;" parent="1" connectable="0" vertex="1">
          <mxGeometry x="522.9990261211078" y="649.9989476077656" as="geometry">
            <mxPoint x="-72" y="25" as="offset" />
          </mxGeometry>
        </mxCell>
        <mxCell id="WJUGm_xcKXY1s7RC3QVQ-64" value="1" style="resizable=0;html=1;whiteSpace=wrap;align=right;verticalAlign=bottom;" parent="1" connectable="0" vertex="1">
          <mxGeometry x="859.9990261211078" y="649.9989476077656" as="geometry">
            <mxPoint x="-72" y="25" as="offset" />
          </mxGeometry>
        </mxCell>
        <mxCell id="WJUGm_xcKXY1s7RC3QVQ-65" value="1" style="resizable=0;html=1;whiteSpace=wrap;align=right;verticalAlign=bottom;" parent="1" connectable="0" vertex="1">
          <mxGeometry x="398.9990261211078" y="734.9989476077656" as="geometry">
            <mxPoint x="-72" y="25" as="offset" />
          </mxGeometry>
        </mxCell>
        <mxCell id="WJUGm_xcKXY1s7RC3QVQ-66" value="M" style="resizable=0;html=1;whiteSpace=wrap;align=right;verticalAlign=bottom;" parent="1" connectable="0" vertex="1">
          <mxGeometry x="738.9990261211078" y="732.9989476077656" as="geometry">
            <mxPoint x="-72" y="25" as="offset" />
          </mxGeometry>
        </mxCell>
        <mxCell id="WJUGm_xcKXY1s7RC3QVQ-67" value="1" style="resizable=0;html=1;whiteSpace=wrap;align=right;verticalAlign=bottom;" parent="1" connectable="0" vertex="1">
          <mxGeometry x="889.9990261211078" y="709.9989476077656" as="geometry">
            <mxPoint x="-72" y="25" as="offset" />
          </mxGeometry>
        </mxCell>
        <mxCell id="WJUGm_xcKXY1s7RC3QVQ-68" value="1" style="resizable=0;html=1;whiteSpace=wrap;align=right;verticalAlign=bottom;" parent="1" connectable="0" vertex="1">
          <mxGeometry x="974.9990261211078" y="379.99894760776556" as="geometry">
            <mxPoint x="-72" y="25" as="offset" />
          </mxGeometry>
        </mxCell>
        <mxCell id="YznxIMqzX0CtkiYnpic4-1" value="1" style="resizable=0;html=1;whiteSpace=wrap;align=right;verticalAlign=bottom;" parent="1" connectable="0" vertex="1">
          <mxGeometry x="331.99901935805997" y="139.00127363281945" as="geometry" />
        </mxCell>
        <mxCell id="YznxIMqzX0CtkiYnpic4-3" value="1" style="resizable=0;html=1;whiteSpace=wrap;align=right;verticalAlign=bottom;" parent="1" connectable="0" vertex="1">
          <mxGeometry x="333.99901935805997" y="159.00127363281945" as="geometry">
            <mxPoint x="232" y="48" as="offset" />
          </mxGeometry>
        </mxCell>
        <mxCell id="YznxIMqzX0CtkiYnpic4-4" value="1" style="resizable=0;html=1;whiteSpace=wrap;align=right;verticalAlign=bottom;" parent="1" connectable="0" vertex="1">
          <mxGeometry x="519.7190278118699" y="388.99836610150203" as="geometry">
            <mxPoint x="85" y="-182" as="offset" />
          </mxGeometry>
        </mxCell>
        <mxCell id="YznxIMqzX0CtkiYnpic4-5" value="1" style="resizable=0;html=1;whiteSpace=wrap;align=right;verticalAlign=bottom;" parent="1" connectable="0" vertex="1">
          <mxGeometry x="584.9990278118698" y="317.99836610150203" as="geometry">
            <mxPoint x="85" y="-182" as="offset" />
          </mxGeometry>
        </mxCell>
      </root>
    </mxGraphModel>
  </diagram>
</mxfile>
